<svg preserveAspectRatio="xMidYMid slice" width="1920" height="1080" viewBox="0 0 1920 1080" fill="none">
    <image height="100%" xlink:href="/smart-world-aerial.jpg" style="object-fit: contain;backdrop-filter: opacity(10%);display: none;"></image>
        <a href="/smart-world/tower/a-b"><g class="sc-bZkfAO dKrtbD">
            <g class="sc-hKMtZM NuQqD">
                <g id="a-tower-svg" class="overlay-can-hide" aria-describedby="tippy-10">
                    <path id="28" d="M217.5 194.398V189.797C217.5 189.331 217.822 188.926 218.277 188.822L235 185C237.681 184.645 239.176 184.859 241.148 187.929C241.366 188.27 241.761 188.462 242.162 188.403L275.228 183.54C275.406 183.514 275.588 183.536 275.754 183.605L282.555 186.405C283.23 186.683 283.965 186.168 283.935 185.439L283.538 175.908C283.516 175.393 283.89 174.946 284.4 174.876L311.899 171.083C312.268 171.032 312.577 170.778 312.711 170.43C314.588 165.542 317.068 163.896 322.926 162.517C322.975 162.506 323.025 162.498 323.074 162.494L360 159.5L372.336 159.993C372.445 159.998 372.552 160.02 372.653 160.059L412.747 175.403C412.913 175.467 413.059 175.573 413.169 175.712C414.942 177.945 415.866 179.46 416.779 182.289C416.914 182.709 417.302 183 417.744 183H418.445C418.79 183 419.109 182.82 419.301 182.533C420.739 180.385 422.064 179.618 424.719 179.058C424.903 179.019 425.093 179.035 425.268 179.101L488.191 202.883C488.392 202.959 488.563 203.097 488.679 203.278L492.135 208.654C492.534 209.276 493.42 209.226 493.974 208.738C494.428 208.339 494.967 208.122 495.783 208.023C495.925 208.006 496.07 208.025 496.206 208.072L514.329 214.44C514.442 214.48 514.548 214.539 514.638 214.617C515.666 215.496 516.14 216.165 516.393 217.37C516.473 217.751 516.738 218.073 517.11 218.188L522.294 219.783C522.714 219.912 523 220.3 523 220.739V256.122C523 256.802 522.336 257.284 521.69 257.073L366.695 206.563C366.566 206.522 366.431 206.506 366.296 206.518L321.5 210.5L220.725 233.718C220.098 233.862 219.5 233.386 219.5 232.743V219.254C219.5 218.808 219.796 218.415 220.225 218.293L225.752 216.714C226.192 216.588 226.491 216.18 226.477 215.723L226.017 200.082C226.007 199.722 225.803 199.396 225.485 199.228L218.032 195.282C217.705 195.108 217.5 194.768 217.5 194.398Z" fill="#69F153" fill-opacity="0.31" stroke="black" class="Available"></path>
                </g>
            </g>
        </g>
    </a>
</svg>