<svg preserveAspectRatio="xMidYMid slice" width="1920" height="1080" viewBox="0 0 1920 1080" fill="none"><image height="100%" xlink:href="/smart-world-aerial.jpg" style="object-fit: contain;backdrop-filter: opacity(10%);display: none;"></image><a href="/smart-world/tower/a-b"><g class="sc-bZkfAO dKrtbD"><g class="sc-hKMtZM NuQqD"><g id="a-tower-svg" class="overlay-can-hide" aria-describedby="tippy-144"><path id="28" d="M217.5 194.398V189.797C217.5 189.331 217.822 188.926 218.277 188.822L235 185C237.681 184.645 239.176 184.859 241.148 187.929C241.366 188.27 241.761 188.462 242.162 188.403L275.228 183.54C275.406 183.514 275.588 183.536 275.754 183.605L282.555 186.405C283.23 186.683 283.965 186.168 283.935 185.439L283.538 175.908C283.516 175.393 283.89 174.946 284.4 174.876L311.899 171.083C312.268 171.032 312.577 170.778 312.711 170.43C314.588 165.542 317.068 163.896 322.926 162.517C322.975 162.506 323.025 162.498 323.074 162.494L360 159.5L372.336 159.993C372.445 159.998 372.552 160.02 372.653 160.059L412.747 175.403C412.913 175.467 413.059 175.573 413.169 175.712C414.942 177.945 415.866 179.46 416.779 182.289C416.914 182.709 417.302 183 417.744 183H418.445C418.79 183 419.109 182.82 419.301 182.533C420.739 180.385 422.064 179.618 424.719 179.058C424.903 179.019 425.093 179.035 425.268 179.101L488.191 202.883C488.392 202.959 488.563 203.097 488.679 203.278L492.135 208.654C492.534 209.276 493.42 209.226 493.974 208.738C494.428 208.339 494.967 208.122 495.783 208.023C495.925 208.006 496.07 208.025 496.206 208.072L514.329 214.44C514.442 214.48 514.548 214.539 514.638 214.617C515.666 215.496 516.14 216.165 516.393 217.37C516.473 217.751 516.738 218.073 517.11 218.188L522.294 219.783C522.714 219.912 523 220.3 523 220.739V256.122C523 256.802 522.336 257.284 521.69 257.073L366.695 206.563C366.566 206.522 366.431 206.506 366.296 206.518L321.5 210.5L220.725 233.718C220.098 233.862 219.5 233.386 219.5 232.743V219.254C219.5 218.808 219.796 218.415 220.225 218.293L225.752 216.714C226.192 216.588 226.491 216.18 226.477 215.723L226.017 200.082C226.007 199.722 225.803 199.396 225.485 199.228L218.032 195.282C217.705 195.108 217.5 194.768 217.5 194.398Z" fill="#69F153" fill-opacity="0.31" stroke="black" class="Available"></path><path id="27" d="M321 235L220.703 255.751C220.082 255.88 219.5 255.406 219.5 254.772V242.82C219.5 242.343 219.836 241.933 220.304 241.839L226.196 240.661C226.664 240.567 227 240.157 227 239.68V237.167C227 236.763 226.757 236.399 226.385 236.244L223.854 235.189C222.959 234.816 223.066 233.515 224.01 233.293L320.93 210.517C320.977 210.506 321.024 210.498 321.072 210.494L366.795 206.518C366.93 206.506 367.066 206.522 367.195 206.564L522.313 257.773C522.723 257.909 523 258.291 523 258.723V278.14C523 278.815 522.346 279.296 521.702 279.095L390 238L367.171 231.548C367.058 231.516 366.94 231.505 366.823 231.513L321 235Z" fill="#69F153" fill-opacity="0.31" stroke="black" class="Available"></path><path id="26" d="M321.5 259.5L221.193 279.265C220.575 279.387 220 278.914 220 278.284V266.308C220 265.837 220.329 265.429 220.79 265.331L226.21 264.169C226.671 264.071 227 263.663 227 263.192V260.074C227 259.719 226.811 259.39 226.504 259.211L223.247 257.311C222.456 256.849 222.65 255.655 223.546 255.468L321.5 235L367.304 231.017C367.434 231.006 367.564 231.02 367.688 231.058L522.797 279.281C523.215 279.411 523.5 279.798 523.5 280.236V299.669C523.5 300.335 522.862 300.815 522.222 300.63L390.5 262.5L367.671 256.048C367.558 256.016 367.44 256.005 367.323 256.013L321.5 259.5Z" fill="#69F153" fill-opacity="0.31" stroke="black" class="Booked"></path><path id="25" d="M227 299.525V279.041C227 278.566 227.335 278.156 227.801 278.061L321.5 259L367.31 255.017C367.436 255.006 367.562 255.018 367.683 255.054L522.786 301.287C523.21 301.413 523.5 301.803 523.5 302.245V321.689C523.5 322.349 522.872 322.828 522.235 322.653L390.5 286.5L367.671 280.048C367.558 280.016 367.44 280.005 367.323 280.013L321.5 283.5L228.179 300.509C227.565 300.621 227 300.149 227 299.525Z" fill="#69F153" fill-opacity="0.31" stroke="black" class="Booked"></path><path id="24" d="M227 322.329V301.836C227 301.352 227.347 300.938 227.823 300.852L321.5 284L367.319 280.016C367.439 280.005 367.559 280.016 367.675 280.049L522.769 323.296C523.201 323.417 523.5 323.81 523.5 324.259V343.717C523.5 344.368 522.887 344.846 522.256 344.687L390.5 311.5L367.671 305.048C367.558 305.016 367.44 305.005 367.323 305.013L321.5 308.5L228.157 323.316C227.55 323.413 227 322.944 227 322.329Z" fill="#69F153" fill-opacity="0.31" stroke="black" class="Booked"></path><path id="23" d="M227 343.341V324.354C227 323.862 227.358 323.443 227.843 323.366L321.5 308.5L367.348 306.008C367.449 306.003 367.55 306.013 367.648 306.037L522.745 345.309C523.189 345.421 523.5 345.821 523.5 346.278V365.754C523.5 366.393 522.908 366.869 522.283 366.73L390.5 337.5L377.118 333.535C377.04 333.512 376.959 333.498 376.877 333.495L318.095 331.004C318.032 331.001 317.969 331.005 317.906 331.014L228.147 344.33C227.543 344.419 227 343.951 227 343.341Z" fill="#69F153" fill-opacity="0.31" stroke="black" class="Available"></path><path id="22" d="M227 365.348V346.363C227 345.867 227.363 345.446 227.854 345.374L318.41 332.013C318.47 332.004 318.53 332.001 318.591 332.003L376.904 333.997C376.968 333.999 377.031 334.007 377.093 334.021L522.723 367.322C523.178 367.426 523.5 367.831 523.5 368.297V387.766C523.5 388.402 522.915 388.876 522.293 388.745L377 358L318.609 353.508C318.537 353.503 318.464 353.505 318.392 353.515L228.141 366.338C227.538 366.423 227 365.956 227 365.348Z" fill="#69F153" fill-opacity="0.31" stroke="black" class="Available"></path><path id="21" d="M227.5 386.37V367.38C227.5 366.877 227.874 366.452 228.373 366.388L317.42 355.01C317.473 355.003 317.527 355.001 317.581 355.003L375.909 356.997C375.97 356.999 376.03 357.006 376.089 357.019L521.713 388.828C522.173 388.928 522.5 389.335 522.5 389.805V409.279C522.5 409.91 521.922 410.384 521.303 410.259L376 381L317.599 376.508C317.533 376.503 317.467 376.504 317.401 376.512L228.621 387.363C228.025 387.436 227.5 386.971 227.5 386.37Z" fill="#69F153" fill-opacity="0.31" stroke="black" class="Available"></path><path id="20" d="M227 407.903V388.877C227 388.375 227.372 387.951 227.87 387.886L318.393 376.014C318.464 376.005 318.536 376.003 318.608 376.009L377 381L521.201 410.555C521.666 410.65 522 411.059 522 411.534V427.821C522 428.438 521.446 428.908 520.837 428.807L377 405L318.585 400.507C318.528 400.502 318.472 400.503 318.415 400.508L228.092 408.899C227.506 408.953 227 408.492 227 407.903Z" fill="#69F153" fill-opacity="0.31" stroke="black" class="Available"></path><path id="19" d="M227.5 429.925V410.903C227.5 410.39 227.888 409.96 228.398 409.908L315.416 401.009C315.472 401.003 315.528 401.002 315.584 401.006L376 405L521.662 428.863C522.145 428.942 522.5 429.36 522.5 429.85V450.335C522.5 450.947 521.954 451.416 521.348 451.323L376 429L317.574 424.506C317.525 424.502 317.475 424.502 317.426 424.505L228.572 430.923C227.993 430.964 227.5 430.506 227.5 429.925Z" fill="#69F153" fill-opacity="0.31" stroke="black" class="Booked"></path><path id="18" d="M227 452.949V431.945C227 431.415 227.414 430.976 227.943 430.946L315 426L375.5 430L521.148 451.872C521.638 451.946 522 452.366 522 452.861V473.35C522 473.958 521.463 474.425 520.861 474.341L375.5 454L317 449.5L228.05 453.948C227.479 453.976 227 453.521 227 452.949Z" fill="#69F153" fill-opacity="0.31" stroke="black" class="Available"></path><path id="17" d="M227 474.983V455.941C227 455.412 227.411 454.975 227.939 454.943L316.923 449.505C316.974 449.502 317.026 449.502 317.077 449.507L375.5 455L521.132 474.384C521.629 474.451 522 474.874 522 475.376V495.87C522 496.47 521.474 496.935 520.878 496.862L375.5 479L317 474.5L228.017 475.983C227.458 475.992 227 475.542 227 474.983Z" fill="#69F153" fill-opacity="0.31" stroke="black" class="Booked"></path><path id="16" d="M227 500.949V477.472C227 476.931 227.431 476.488 227.972 476.472L315 474L375.5 478L521.132 497.384C521.629 497.451 522 497.874 522 498.376V515.396C522 515.987 521.49 516.45 520.901 516.391L375.5 502L317 497.5L228.05 501.948C227.479 501.976 227 501.521 227 500.949Z" fill="#69F153" fill-opacity="0.31" stroke="black" class="Available"></path><path id="15" d="M227 527.925V503.946C227 503.415 227.415 502.977 227.945 502.948L317 498L375.5 503L521.098 517.411C521.61 517.461 522 517.892 522 518.406V538.907C522 539.495 521.496 539.955 520.912 539.903L375.5 527L317.074 522.506C317.025 522.502 316.975 522.502 316.926 522.505L228.072 528.923C227.493 528.964 227 528.506 227 527.925Z" fill="#69F153" fill-opacity="0.31" stroke="black" class="Available"></path><path id="14" d="M227 553.943V529.915C227 529.397 227.396 528.965 227.911 528.919L316.907 521.008C316.969 521.003 317.031 521.003 317.093 521.009L521.097 540.912C521.609 540.962 522 541.393 522 541.907V562.432C522 563.01 521.511 563.468 520.934 563.43L317 550L228.055 554.941C227.482 554.973 227 554.517 227 553.943Z" fill="#69F153" fill-opacity="0.31" stroke="black" class="Available"></path><path id="13" d="M318 574.5L228.022 576.478C227.461 576.49 227 576.039 227 575.478V555.957C227 555.422 227.421 554.981 227.956 554.958L318 551L522.056 562.447C522.586 562.477 523 562.915 523 563.445V583.947C523 584.52 522.52 584.975 521.949 584.946L318 574.5Z" fill="#69F153" fill-opacity="0.31" stroke="black" class="Available"></path><path id="12" d="M318 598.5H228C227.448 598.5 227 598.052 227 597.5V577.978C227 577.435 227.434 576.99 227.978 576.979L318 575L522.046 584.456C522.58 584.481 523 584.92 523 585.455V605.958C523 606.526 522.527 606.98 521.959 606.957L318 598.5Z" fill="#69F153" fill-opacity="0.31" stroke="black" class="Booked"></path><path id="11" d="M319 620.5H229C228.448 620.5 228 620.052 228 619.5V599.978C228 599.435 228.434 598.99 228.978 598.979L319 597L521.546 606.394C522.08 606.418 522.5 606.858 522.5 607.393V625.968C522.5 626.532 522.033 626.985 521.468 626.967L319 620.5Z" fill="#69F153" fill-opacity="0.31" stroke="black" class="Booked"></path><path id="10" d="M318 644L228.983 642.516C228.438 642.507 228 642.062 228 641.517V622C228 621.448 228.448 621 229 621H319L521.027 626.474C521.569 626.488 522 626.932 522 627.473V647.975C522 648.537 521.537 648.989 520.975 648.975L318 644Z" fill="#69F153" fill-opacity="0.31" stroke="black" class="Booked"></path><path id="09" d="M319 672H229C228.448 672 228 671.552 228 671V645C228 644.448 228.448 644 229 644H319L521.027 649.474C521.569 649.488 522 649.932 522 650.473V671C522 671.552 521.552 672 521 672H319Z" fill="#69F153" fill-opacity="0.31" stroke="black" class="Booked"></path><path id="08" d="M319 701H229C228.448 701 228 700.552 228 700V674C228 673.448 228.448 673 229 673H319H521C521.552 673 522 673.448 522 674V697.03C522 697.571 521.571 698.013 521.031 698.03L375.5 702.5L319 701Z" fill="#69F153" fill-opacity="0.31" stroke="black" class="Booked"></path><path id="07" d="M319 723L228.945 718.052C228.415 718.023 228 717.584 228 717.053V702C228 701.448 228.448 701 229 701H321.5L520.985 698.015C521.543 698.007 522 698.457 522 699.015V712.563C522 713.09 521.591 713.527 521.065 713.561L375.5 723H319Z" fill="#69F153" fill-opacity="0.31" stroke="black" class="Booked"></path><path id="06" d="M319 745L228.896 735.594C228.387 735.54 228 735.111 228 734.599V719.549C228 718.978 228.478 718.523 229.048 718.55L321.5 723H377.5L520.941 714.562C521.516 714.528 522 714.985 522 715.561V732.079C522 732.599 521.601 733.033 521.082 733.075L375.5 745H319Z" fill="#69F153" fill-opacity="0.31" stroke="black" class="Booked"></path><path id="05" d="M319 768L228.884 757.513C228.38 757.454 228 757.027 228 756.519V737.095C228 736.507 228.505 736.046 229.091 736.099L321.5 744.5H377.5L520.928 734.078C521.507 734.036 522 734.494 522 735.075V753.71C522 754.227 521.606 754.659 521.091 754.706L375.5 768H319Z" fill="#69F153" fill-opacity="0.31" stroke="black" class="Booked"></path><path id="04" d="M319 791L228.884 780.513C228.38 780.454 228 780.027 228 779.519V759.107C228 758.514 228.512 758.052 229.101 758.112L321.5 767.5H377.5L520.914 755.094C521.498 755.043 522 755.504 522 756.09V776.71C522 777.227 521.606 777.659 521.091 777.706L375.5 791H319Z" fill="#69F153" fill-opacity="0.31" stroke="black" class="Booked"></path><path id="03" d="M319 814L228.884 803.513C228.38 803.454 228 803.027 228 802.519V782.107C228 781.514 228.512 781.052 229.101 781.112L321.5 790.5H377.5L520.914 778.094C521.498 778.043 522 778.504 522 779.09V799.71C522 800.227 521.606 800.659 521.091 800.706L375.5 814H319Z" fill="#69F153" fill-opacity="0.31" stroke="black" class="Booked"></path><path id="02" d="M319 837L228.884 826.513C228.38 826.454 228 826.027 228 825.519V805.107C228 804.514 228.512 804.052 229.101 804.112L321.5 813.5H377.5L520.914 801.094C521.498 801.043 522 801.504 522 802.09V822.71C522 823.227 521.606 823.659 521.091 823.706L375.5 837H319Z" fill="#69F153" fill-opacity="0.31" stroke="black" class="Booked"></path><path id="01" d="M319 860L228.884 849.513C228.38 849.454 228 849.027 228 848.519V828.107C228 827.514 228.512 827.052 229.101 827.112L321.5 836.5H377.5L520.914 824.094C521.498 824.043 522 824.504 522 825.09V845.71C522 846.227 521.606 846.659 521.091 846.706L375.5 860H319Z" fill="#69F153" fill-opacity="0.31" stroke="black" class="Available"></path><path id="00" d="M319 883L228.884 872.513C228.38 872.454 228 872.027 228 871.519V851.107C228 850.514 228.512 850.052 229.101 850.112L321.5 859.5H377.5L520.914 847.094C521.498 847.043 522 847.504 522 848.09V868.71C522 869.227 521.606 869.659 521.091 869.706L375.5 883H319Z" fill="#69F153" fill-opacity="0.31" stroke="black"></path></g></g></g></a><a href="/smart-world/tower/a-b"><g class="sc-bZkfAO dKrtbD"><g class="sc-hKMtZM NuQqD"><g id="b-tower-svg" class="overlay-can-hide" aria-describedby="tippy-144"><path id="28_2" d="M523.5 268V234.5L550.5 230.5L557 233C558.971 230.312 560.242 230.591 562.5 231L575.5 236.5C577.252 237.492 577.5 238 577.5 239.5L580 240C581.528 238.072 582.545 237.214 586 238L632 255C635.138 256.342 636.216 257.894 637 262C637.748 258.583 638.795 257.809 641.5 258L666.5 267.5L665.5 274.5L660 275.5V289.5L664.5 291.5V304L548.5 266L523.5 268Z" fill="#69F153" fill-opacity="0.31" stroke="black" class="Available"></path><path id="27_2" d="M524 288.5V267.5L548.5 266L660 302.5V308.5L664.5 310.5V323L548.5 288.5H524Z" fill="#69F153" fill-opacity="0.31" stroke="black" class="Booked"></path><path id="26_2" d="M524 308V289H548.5L660 321.5V327.5L664.5 328.5V341L548.5 310L524 308Z" fill="#69F153" fill-opacity="0.31" stroke="black" class="Booked"></path><path id="25_2" d="M524 329V308L548.5 311L658.5 339.644V358.144L548.5 332L524 329Z" fill="#69F153" fill-opacity="0.31" stroke="black" class="Available"></path><path id="24_2" d="M524 351V330L548.5 333L658.5 358.191V376.691L548.5 354L524 351Z" fill="#69F153" fill-opacity="0.31" stroke="black" class="Available"></path><path id="23_2" d="M524 373V352L548.5 355L658.5 377.231V395.731L548.5 376L524 373Z" fill="#69F153" fill-opacity="0.31" stroke="black" class="Available"></path><path id="22_2" d="M524 395V374L548.5 377L659 396.5V415L548.5 398L524 395Z" fill="#69F153" fill-opacity="0.31" stroke="black" class="Available"></path><path id="21_2" d="M523 414V395L547.5 398L659 415.5V434L547.5 418.5L523 414Z" fill="#69F153" fill-opacity="0.31" stroke="black" class="Available"></path><path id="20_2" d="M523 432V413L547.5 418L659 434V452.5L547.5 438.5L523 432Z" fill="#69F153" fill-opacity="0.31" stroke="black" class="Booked"></path><path id="19_2" d="M523 451.5V432.5L547.5 439L659 453V471.5L547.5 459.5L523 451.5Z" fill="#69F153" fill-opacity="0.31" stroke="black" class="Booked"></path><path id="18_2" d="M523 473V451.5L547.5 460.5L659 471V492.5L547.5 481L523 473Z" fill="#69F153" fill-opacity="0.31" stroke="black" class="Booked"></path><path id="17_2" d="M523 494.5V473L547.5 482L659 492.5V514L547.5 502.5L523 494.5Z" fill="#69F153" fill-opacity="0.31" stroke="black" class="Booked"></path><path id="16_2" d="M522 520V494L546.5 503L658 513.5V533L546.5 523.5L522 520Z" fill="#69F153" fill-opacity="0.31" stroke="black" class="Booked"></path><path id="15_2" d="M522 540V519.5L546.5 523L658 533.5V553L546.5 543.5L522 540Z" fill="#69F153" fill-opacity="0.31" stroke="black" class="Booked"></path><path id="14_2" d="M522 561.5V541L546.5 544.5L658 552.5V572L546.5 565L522 561.5Z" fill="#69F153" fill-opacity="0.31" stroke="black" class="Booked"></path><path id="13_2" d="M523 582.5V562L547.5 565.5L657.5 571.5V591L547.5 586L523 582.5Z" fill="#69F153" fill-opacity="0.31" stroke="black" class="Available"></path><path id="12_2" d="M523 607V583L547.5 586.5L657.5 591V610.5L547.5 607H523Z" fill="#69F153" fill-opacity="0.31" stroke="black" class="Booked"></path><path id="11_2" d="M523 628V607.5H547.5L657.5 610.5V630L547.5 628H523Z" fill="#69F153" fill-opacity="0.31" stroke="black" class="Booked"></path><path id="10_2" d="M523 647.5V627H547.5L657.5 630V649.5L547.5 647.5H523Z" fill="#69F153" fill-opacity="0.31" stroke="black" class="Booked"></path><path id="09_2" d="M523 667.5V647H547.5L657.5 650V669.5L547.5 667.5H523Z" fill="#69F153" fill-opacity="0.31" stroke="black" class="Booked"></path><path id="08_2" d="M523 688.5V668H547.5L658.5 669V688.5L547.5 691L523 688.5Z" fill="#69F153" fill-opacity="0.31" stroke="black" class="Booked"></path><path id="07_2" d="M523 709V688.5L546.5 691L658.5 688.5V708L546.5 714L523 709Z" fill="#69F153" fill-opacity="0.31" stroke="black" class="Booked"></path><path id="06_2" d="M522.5 730V709.5L547.5 714.5L658.5 708V727.5L547.5 735.5L522.5 730Z" fill="#69F153" fill-opacity="0.31" stroke="black" class="Booked"></path><path id="05_2" d="M523 750.5V730L548 736.5L659 727.5V744.5L548 755L523 750.5Z" fill="#69F153" fill-opacity="0.31" stroke="black" class="Booked"></path><path id="04_2" d="M523 770V749.5L548 756L659 745.5V762.5L548 774.5L523 770Z" fill="#69F153" fill-opacity="0.31" stroke="black" class="Available"></path><path id="03_2" d="M523 790V769.5L550 774.5L659 762.5V779.5L550 795.5L523 790Z" fill="#69F153" fill-opacity="0.31" stroke="black" class="Booked"></path><path id="02_2" d="M523 811.5V791L550 796L659 779.5V799.5L550 820L523 811.5Z" fill="#69F153" fill-opacity="0.31" stroke="black" class="Booked"></path><path id="01_2" d="M523 832.5V812L550 820.5L659 799.5V819.5L550 844.5L523 832.5Z" fill="#69F153" fill-opacity="0.31" stroke="black" class="Available"></path><path id="00_2" d="M523 853V832.5L550 845L659 819.5V838L551.5 864.5L523 853Z" fill="#69F153" fill-opacity="0.31" stroke="black"></path></g></g></g></a><a href="/smart-world/tower/c-d"><g class="sc-bZkfAO dKrtbD"><g class="sc-hKMtZM NuQqD"><g id="c-tower-svg" class="overlay-can-hide" aria-describedby="tippy-144"><path id="28_3" d="M665 304.5V297L670.5 296.5L675.5 298.5L696.5 296.5C700.036 291.358 702.722 289.406 711 290.5L767.5 310C771.345 311.032 772.157 312.544 772.5 316L781 318.5V323L782 323.5V343.5L701.5 321.5L665 320V310L660.5 309V303L665 304.5Z" fill="#69F153" fill-opacity="0.31" stroke="black" class="Available"></path><path id="27_3" d="M781.5 344V358.5L701 338.793H664.5V328.793L660 327.793V321.793L664.5 323.293V319.5L701 321.793M781.5 344C781.157 340.545 785.345 345.032 781.5 344ZM781.5 344L701 321.793M701 321.793C692.722 320.7 704.536 316.651 701 321.793Z" stroke="black" class="Booked"></path><path id="26_3" d="M664.5 341.048V338.5L701 339.548L781.5 358.5V376.255L701 356.548L658.5 355.548V339.548L664.5 341.048Z" fill="#69F153" fill-opacity="0.31" class="Booked"></path><path id="25_3" d="M659 373.548V355.5L701.5 356.5L781.512 376.876V394.13L701.5 374.548L659 373.548Z" fill="#69F153" fill-opacity="0.31" stroke="black" class="Booked"></path><path id="24_3" d="M659 392.048V374L702.5 375L781.5 394V411.255L702.5 393.048L659 392.048Z" fill="#69F153" fill-opacity="0.31" stroke="black" class="Booked"></path><path id="23_3" d="M659 410.048V392L702.5 393L781.5 412V429.255L702.5 411.048L659 410.048Z" fill="#69F153" fill-opacity="0.31" stroke="black" class="Booked"></path><path id="22_3" d="M659 428.048V410L702.5 411L781.5 430V445.5L700.5 430L659 428.048Z" fill="#69F153" fill-opacity="0.31" stroke="black" class="Booked"></path><path id="21_3" d="M660 447.048V429L700.5 430L781.814 445.879V461.331L700.5 447.048H660Z" fill="#69F153" fill-opacity="0.31" stroke="black" class="Booked"></path><path id="20_3" d="M660 465.048V447H700.5L781.814 461.548V477L700.5 464.048L660 465.048Z" fill="#69F153" fill-opacity="0.31" stroke="black" class="Booked"></path><path id="19_3" d="M660 482.048V464H700.5L781.814 476.548V496L700.5 483.048L660 482.048Z" fill="#69F153" fill-opacity="0.31" stroke="black" class="Booked"></path><path id="18_3" d="M660 500.048V482L700.5 484L781.814 496.548V514L700.5 503.048L660 500.048Z" fill="#69F153" fill-opacity="0.31" stroke="black" class="Booked"></path><path id="17_3" d="M660 519.048V501L700.5 502.999L781.814 513.548V531L700.5 522.048L660 519.048Z" fill="#69F153" fill-opacity="0.31" stroke="black" class="Booked"></path><path id="16_3" d="M660 537.048V519L700.5 522.999L781.814 531.048V548.5L694.5 541.5L660 537.048Z" fill="#69F153" fill-opacity="0.31" stroke="black" class="Booked"></path><path id="15_3" d="M660 553.5V538L700.5 541.999L781.814 548.5V564L695 558.5L660 553.5Z" fill="#69F153" fill-opacity="0.31" stroke="black" class="Booked"></path><path id="14_3" d="M660 569.5V554L700.5 557.999L781.814 564.5V580L695 574.5L660 569.5Z" fill="#69F153" fill-opacity="0.31" stroke="black" class="Booked"></path><path id="13_3" d="M660 587.5V569.5L697 574.5L781.814 580V597L695 592.5L660 587.5Z" fill="#69F153" fill-opacity="0.31" stroke="black" class="Booked"></path><path id="12_3" d="M660 606V588L695 592.5L781.814 597V614L695 611L660 606Z" fill="#69F153" fill-opacity="0.31" stroke="black" class="Booked"></path><path id="11_3" d="M660 624V606L695 610.5L781.814 615V632L695 629L660 624Z" fill="#69F153" fill-opacity="0.31" stroke="black" class="Booked"></path><path id="10_3" d="M660 643V624L695 629.5L781.814 632V650L695 651.5L660 643Z" fill="#69F153" fill-opacity="0.31" stroke="black" class="Booked"></path><path id="09_3" d="M660 659.5V643L695 651H781.814V665.5L695 667.5L660 659.5Z" fill="#69F153" fill-opacity="0.31" stroke="black" class="Booked"></path><path id="08_3" d="M660 676.5V660L695 668L781.814 665.5V682.5L695 684.5L660 676.5Z" fill="#69F153" fill-opacity="0.31" stroke="black" class="Booked"></path><path id="07_3" d="M660 693.5V677L695 685L781.814 682.5V699.5L695 701.5L660 693.5Z" fill="#69F153" fill-opacity="0.31" stroke="black" class="Booked"></path><path id="06_3" d="M660 710.5V694L695 702L781.814 699.5V716.5L695 718.5L660 710.5Z" fill="#69F153" fill-opacity="0.31" stroke="black" class="Booked"></path><path id="05_3" d="M660 727.5V711L695 719L781.814 716.5V731.5L695 735.5L660 727.5Z" fill="#69F153" fill-opacity="0.31" stroke="black" class="Booked"></path><path id="04_3" d="M660 744.5V728L695 736L781.814 731.5V747.5L695 752.5L660 744.5Z" fill="#69F153" fill-opacity="0.31" stroke="black" class="Booked"></path><path id="03_3" d="M660 765.5V745L695 753L781.814 748.5V765.5L696 774.5L660 765.5Z" fill="#69F153" fill-opacity="0.31" stroke="black" class="Booked"></path><path id="02_3" d="M660 786.5V766L695 774L781.814 766V783L696 795.5L660 786.5Z" fill="#69F153" fill-opacity="0.31" stroke="black" class="Booked"></path><path id="01_3" d="M660 803V786.5L695 796L781.814 783L782 797L696.5 811.5L660 803Z" fill="#69F153" fill-opacity="0.31" stroke="black" class="Available"></path><path id="00_3" d="M660 818V803L695 811L782 797.5V812L696.5 826.5L660 818Z" fill="#69F153" fill-opacity="0.31" stroke="black"></path></g></g></g></a><a href="/smart-world/tower/c-d"><g class="sc-bZkfAO dKrtbD"><g class="sc-hKMtZM NuQqD"><g id="d-tower-svg" class="overlay-can-hide" aria-describedby="tippy-144"><path id="28_4" d="M783 347V323.5L791.5 326L802 324.5L810.5 327.5C811.652 326.409 812.372 325.981 814 326L840.5 335.5C843.143 336.76 843.945 338.278 844.5 342C844.984 339.524 845.524 338.41 848 338L856.5 342L855.5 352.5H851V359L856.5 360.5L855.5 368.5L800 350H791.5L783 347Z" fill="#69F153" fill-opacity="0.31" stroke="black" class="Available"></path><path id="27_4" d="M782.5 364V347L792 350H800.5L851.5 367L851 374L856 376L855 384L801.5 366H792L782.5 364Z" fill="#69F153" fill-opacity="0.31" stroke="black" class="Booked"></path><path id="26_4" d="M782 381V364L791.5 366H801.5L851 383L850.571 390L855.571 392L855.062 396.5L854.562 400.5L801 383H791.5L782 381Z" fill="#69F153" fill-opacity="0.31" stroke="black" class="Booked"></path><path id="25_4" d="M782 398V381L791.5 383H801.5L851 400L850.571 407V416.196L801 400H791.5L782 398Z" fill="#69F153" fill-opacity="0.31" stroke="black" class="Booked"></path><path id="24_4" d="M782 414.422V398L791.5 399.932H801.5L851 416.354V430.5L801 416.354H791.5L782 414.422Z" fill="#69F153" fill-opacity="0.31" stroke="black" class="Booked"></path><path id="23_4" d="M782 431.422V415L791.5 416.932H801.5L851 430.354V444.5L801 433.354H791.5L782 431.422Z" fill="#69F153" fill-opacity="0.31" stroke="black" class="Booked"></path><path id="22_4" d="M782 448.422V432L791.5 433.932H801.5L851 444.5V460L801 450.354H791.5L782 448.422Z" fill="#69F153" fill-opacity="0.31" stroke="black" class="Booked"></path><path id="21_4" d="M782 464.5V449L791.5 450.932H801.5L851 460V475.5L801 466.5H791.5L782 464.5Z" fill="#69F153" fill-opacity="0.31" stroke="black" class="Booked"></path><path id="20_4" d="M782 480.5V465L791.5 466.932H801.5L851 476V491.5L801 482.5H791.5L782 480.5Z" fill="#69F153" fill-opacity="0.31" stroke="black" class="Booked"></path><path id="19_4" d="M782 496.5V481L791.5 482.932H801.5L851 492V507.5L801 498.5H791.5L782 496.5Z" fill="#69F153" fill-opacity="0.31" stroke="black" class="Booked"></path><path id="18_4" d="M782 512.5V497L791.5 498.932H801.5L851 508V523.5L801 514.5H791.5L782 512.5Z" fill="#69F153" fill-opacity="0.31" stroke="black" class="Booked"></path><path id="17_4" d="M782 531V513L791.5 514.932H801.5L851 524V538L807 533L782 531Z" fill="#69F153" fill-opacity="0.31" stroke="black" class="Booked"></path><path id="16_4" d="M782 548V531L851 538V555L806.5 550L803.5 549L782 548Z" fill="#69F153" fill-opacity="0.31" stroke="black" class="Booked"></path><path id="15_4" d="M782 565V548L803.5 549L807.5 550L851 555V570.5L806.5 567L803.5 566L782 565Z" fill="#69F153" fill-opacity="0.31" stroke="black" class="Booked"></path><path id="14_4" d="M782 582V565L803.5 566L807.5 567L851 570.5V586L806.5 584L803.5 583L782 582Z" fill="#69F153" fill-opacity="0.31" stroke="black" class="Booked"></path><path id="13_4" d="M782 599V582L803.5 583L807.5 584L851 585.5V601L808 599.5L782 599Z" fill="#69F153" fill-opacity="0.31" stroke="black" class="Booked"></path><path id="12_4" d="M782 615V599L851 601.5V616.5L782 615Z" fill="#69F153" fill-opacity="0.31" stroke="black" class="Booked"></path><path id="11_4" d="M782 631V615L851 617.5V632.5L782 631Z" fill="#69F153" fill-opacity="0.31" stroke="black" class="Booked"></path><path id="10_4" d="M782 648V632L851 633V648H782Z" fill="#69F153" fill-opacity="0.31" stroke="black" class="Booked"></path><path id="09_4" d="M782 664V648L851 649V664H782Z" fill="#69F153" fill-opacity="0.31" stroke="black" class="Booked"></path><path id="08_4" d="M782 681V665H851V681H782Z" fill="#69F153" fill-opacity="0.31" stroke="black" class="Booked"></path><path id="07_4" d="M782 697V681H851V694.5L782 697Z" fill="#69F153" fill-opacity="0.31" stroke="black" class="Booked"></path><path id="06_4" d="M782 714V698L851 695.5V711.5L782 714Z" fill="#69F153" fill-opacity="0.31" stroke="black" class="Booked"></path><path id="05_4" d="M782 730.5V714.5L851 712V726L782 730.5Z" fill="#69F153" fill-opacity="0.31" stroke="black" class="Booked"></path><path id="04_4" d="M782 746.5V730.5L851 726.5V742L782 746.5Z" fill="#69F153" fill-opacity="0.31" stroke="black" class="Booked"></path><path id="03_4" d="M782 762V746L851 742V757.5L782 762Z" fill="#69F153" fill-opacity="0.31" stroke="black" class="Booked"></path><path id="02_4" d="M782 778V762L851 758V772L782 778Z" fill="#69F153" fill-opacity="0.31" stroke="black" class="Available"></path><path id="01_4" d="M782 794V778L851 772.5V786L782 794Z" fill="#69F153" fill-opacity="0.31" stroke="black" class="Available"></path><path id="00_4" d="M782 810.5V794.5L851 786V799.5L782 810.5Z" fill="#69F153" fill-opacity="0.31" stroke="black"></path></g></g></g></a><a href="/smart-world/tower/e-f"><g class="sc-bZkfAO dKrtbD"><g class="sc-hKMtZM NuQqD"><g id="e-tower-svg" class="overlay-can-hide" aria-describedby="tippy-144"><path id="28_5" d="M1081.5 336.706V306L1075 308V311.5L1068 313.5L1059 315.5L1049.5 314.628L1043 313.5L1039 315.5C1037.36 314.353 1037.32 314.998 1035 315.018L988.094 327.244L979 330.5L980.5 342.489H983.826V349.322L978.385 350.419L979.808 358.829L1056.39 339.86H1068.48L1081.5 336.706Z" fill="#69F153" fill-opacity="0.31" class="Available"></path><path id="27_5" d="M1081.29 354.579V336.706L1067.77 339.86H1055.68L983.114 357.733L983.825 365.092L978.134 366.774L979.557 375.185L1054.25 356.681H1067.77L1081.29 354.579Z" fill="#69F153" fill-opacity="0.31" stroke="black" class="Booked"></path><path id="26_5" d="M1082 372.452V354.579L1068.48 356.682H1054.26L983.826 374.554V381L978.757 381.914L979.5 392.5L1054.97 374.554H1068.48L1082 372.452Z" fill="#69F153" fill-opacity="0.31" stroke="black" class="Booked"></path><path id="25_5" d="M1082 390.325V372.452L1068.48 374.555H1054.26L983.826 392.428L984.435 399.787V409.455L1054.97 392.428H1068.48L1082 390.325Z" fill="#69F153" fill-opacity="0.31" stroke="black" class="Booked"></path><path id="24_5" d="M1082 407.59V390.324L1068.48 392.355H1054.26L983.826 409.621V424.493L1054.97 409.621H1068.48L1082 407.59Z" fill="#69F153" fill-opacity="0.31" stroke="black" class="Booked"></path><path id="23_5" d="M1082 425.463V408.197L1068.48 410.228H1054.26L983.826 424.34V439.212L1054.97 427.494H1068.48L1082 425.463Z" fill="#69F153" fill-opacity="0.31" stroke="black" class="Booked"></path><path id="22_5" d="M1082 443.335V426.069L1068.48 428.101H1054.26L983.826 439.211V455.507L1054.97 445.366H1068.48L1082 443.335Z" fill="#69F153" fill-opacity="0.31" stroke="black" class="Booked"></path><path id="21_5" d="M1082 460.238V443.942L1068.48 445.974H1054.26L983.826 455.507V471.803L1054.97 462.341H1068.48L1082 460.238Z" fill="#69F153" fill-opacity="0.31" stroke="black" class="Booked"></path><path id="20_5" d="M1082 477.059V460.764L1068.48 462.795H1054.26L983.826 472.328V488.624L1054.97 479.162H1068.48L1082 477.059Z" fill="#69F153" fill-opacity="0.31" stroke="black" class="Booked"></path><path id="19_5" d="M1082 493.881V477.585L1068.48 479.616H1054.26L983.826 489.15V505.445L1054.97 495.983H1068.48L1082 493.881Z" fill="#69F153" fill-opacity="0.31" stroke="black" class="Booked"></path><path id="18_5" d="M1082 510.702V494.406L1068.48 496.437H1054.26L983.826 505.971V522.267L1054.97 512.805H1068.48L1082 510.702Z" fill="#69F153" fill-opacity="0.31" stroke="black" class="Booked"></path><path id="17_5" d="M1082 530.152V511.228L1068.48 513.259H1054.26L983.826 522.792V537.511L1046.43 532.254L1082 530.152Z" fill="#69F153" fill-opacity="0.31" stroke="black" class="Booked"></path><path id="16_5" d="M1082 548.025V530.152L983.826 537.512V555.384L1047.14 550.128L1051.41 549.076L1082 548.025Z" fill="#69F153" fill-opacity="0.31" stroke="black" class="Booked"></path><path id="15_5" d="M1082 565.897V548.024L1051.41 549.076L1045.72 550.127L983.826 555.384V571.679L1047.14 568L1051.41 566.948L1082 565.897Z" fill="#69F153" fill-opacity="0.31" stroke="black" class="Booked"></path><path id="14_5" d="M1082 583.77V565.897L1051.41 566.949L1045.72 568L983.826 571.68V587.975L1047.14 585.873L1051.41 584.821L1082 583.77Z" fill="#69F153" fill-opacity="0.31" stroke="black" class="Booked"></path><path id="13_5" d="M1082 601.642V583.77L1051.41 584.821L1045.72 585.872L983.826 587.449V603.745L1045.01 602.168L1082 601.642Z" fill="#69F153" fill-opacity="0.31" stroke="black" class="Booked"></path><path id="12_5" d="M1082 618.464V601.643L983.826 604.271V620.041L1082 618.464Z" fill="#69F153" fill-opacity="0.31" stroke="black" class="Booked"></path><path id="11_5" d="M1082 635.285V618.464L983.826 621.092V636.862L1082 635.285Z" fill="#69F153" fill-opacity="0.31" stroke="black" class="Booked"></path><path id="10_5" d="M1082 653.158V636.337L983.826 637.388V653.158H1082Z" fill="#69F153" fill-opacity="0.31" stroke="black" class="Booked"></path><path id="09_5" d="M1082 669.98V653.158L983.826 654.21V669.98H1082Z" fill="#69F153" fill-opacity="0.31" stroke="black" class="Booked"></path><path id="08_5" d="M1082 687.853V671.031H983.826V687.853H1082Z" fill="#69F153" fill-opacity="0.31" stroke="black" class="Booked"></path><path id="07_5" d="M1082 704.674V687.853H983.826V702.046L1082 704.674Z" fill="#69F153" fill-opacity="0.31" stroke="black" class="Booked"></path><path id="06_5" d="M1082 722.546V705.725L983.826 703.097V719.918L1082 722.546Z" fill="#69F153" fill-opacity="0.31" stroke="black" class="Booked"></path><path id="05_5" d="M1082 739.893V723.072L983.826 720.443V735.162L1082 739.893Z" fill="#69F153" fill-opacity="0.31" stroke="black" class="Booked"></path><path id="04_5" d="M1082 756.714V739.893L983.826 735.688V751.983L1082 756.714Z" fill="#69F153" fill-opacity="0.31" stroke="black" class="Booked"></path><path id="03_5" d="M1082 773.01V756.189L983.826 751.983V768.279L1082 773.01Z" fill="#69F153" fill-opacity="0.31" stroke="black" class="Booked"></path><path id="02_5" d="M1082 789.831V773.01L983.826 768.805V783.523L1082 789.831Z" fill="#69F153" fill-opacity="0.31" stroke="black" class="Available"></path><path id="01_5" d="M1082 806.653V789.831L983.826 784.049V798.242L1082 806.653Z" fill="#69F153" fill-opacity="0.31" stroke="black" class="Available"></path><path id="00_5" d="M1082 824V807.179L983.826 798.242V812.435L1082 824Z" fill="#69F153" fill-opacity="0.31" stroke="black"></path></g></g></g></a><a href="/smart-world/tower/e-f"><g class="sc-bZkfAO dKrtbD"><g class="sc-hKMtZM NuQqD"><g id="f-tower-svg" class="overlay-can-hide" aria-describedby="tippy-144"><path id="28_6" d="M1213.5 309.5V295.5V292.5L1184.57 287.31C1180.28 281.902 1175.03 279.468 1165 280.618L1136 287.31L1092.89 298.499C1088.23 299.585 1087.24 301.175 1086.83 304.809L1082.59 305.499V308.487L1081.98 308.75V329.783L1178.9 306.91L1213.5 309.5Z" fill="#69F153" fill-opacity="0.31" stroke="black" class="Available"></path><path id="27_6" d="M1223.73 329V311L1179.51 307.218L1081.98 330.572V345.821L1179.51 325.096L1223.73 329Z" fill="#69F153" fill-opacity="0.31" class="Available"></path><path id="26_6" d="M1223.73 334.5V329L1179.51 325.891L1081.98 345.822V364.494L1179.51 343.769L1231 347.327V333L1223.73 334.5Z" fill="#69F153" fill-opacity="0.31" class="Booked"></path><path id="25_6" d="M1230.39 361.647V347.5L1178.9 343.718L1081.97 365.146V383.292L1178.9 362.698L1230.39 361.647Z" fill="#69F153" fill-opacity="0.31" stroke="black" class="Booked"></path><path id="24_6" d="M1230.39 381.103V362.122L1177.69 363.174L1081.98 383.155V401.301L1177.69 382.154L1230.39 381.103Z" fill="#69F153" fill-opacity="0.31" stroke="black" class="Booked"></path><path id="23_6" d="M1230.39 400.032V381.052L1177.69 382.103L1081.98 402.085V420.231L1177.69 401.084L1230.39 400.032Z" fill="#69F153" fill-opacity="0.31" stroke="black" class="Booked"></path><path id="22_6" d="M1230.39 418.963V399.982L1177.69 401.034L1081.98 421.016V437.316L1180.12 421.016L1230.39 418.963Z" fill="#69F153" fill-opacity="0.31" stroke="black" class="Booked"></path><path id="21_6" d="M1229.18 438.943V419.963L1180.12 421.015L1081.6 437.714V453.964L1180.12 438.943H1229.18Z" fill="#69F153" fill-opacity="0.31" stroke="black" class="Booked"></path><path id="20_6" d="M1229.18 457.874V438.894H1180.12L1081.6 454.193V470.443L1180.12 456.822L1229.18 457.874Z" fill="#69F153" fill-opacity="0.31" stroke="black" class="Booked"></path><path id="19_6" d="M1229.18 475.753V456.772H1180.12L1081.6 469.969V490.426L1180.12 476.805L1229.18 475.753Z" fill="#69F153" fill-opacity="0.31" stroke="black" class="Booked"></path><path id="18_6" d="M1229.18 494.683V475.702L1180.12 477.805L1081.6 491.002V509.355L1180.12 497.837L1229.18 494.683Z" fill="#69F153" fill-opacity="0.31" stroke="black" class="Booked"></path><path id="17_6" d="M1229.18 514.664V495.684L1180.12 497.786L1081.6 508.879V527.233L1180.12 517.819L1229.18 514.664Z" fill="#69F153" fill-opacity="0.31" stroke="black" class="Booked"></path><path id="16_6" d="M1229.18 533.594V514.613L1180.12 518.819L1081.6 527.283V545.637L1187.38 538.276L1229.18 533.594Z" fill="#69F153" fill-opacity="0.31" stroke="black" class="Booked"></path><path id="15_6" d="M1229.18 550.896V534.596L1180.12 538.801L1081.6 545.638V561.939L1186.78 556.155L1229.18 550.896Z" fill="#69F153" fill-opacity="0.31" stroke="black" class="Booked"></path><path id="14_6" d="M1229.18 567.723V551.422L1180.12 555.628L1081.6 562.464V578.765L1186.78 572.981L1229.18 567.723Z" fill="#69F153" fill-opacity="0.31" stroke="black" class="Booked"></path><path id="13_6" d="M1229.18 586.654V567.724L1184.36 572.982L1081.6 578.766V596.644L1186.78 591.912L1229.18 586.654Z" fill="#69F153" fill-opacity="0.31" stroke="black" class="Booked"></path><path id="12_6" d="M1229.18 606.108V587.178L1186.78 591.91L1081.6 596.643V614.521L1186.78 611.366L1229.18 606.108Z" fill="#69F153" fill-opacity="0.31" stroke="black" class="Booked"></path><path id="11_6" d="M1229.18 625.038V606.108L1186.78 610.841L1081.6 615.573V633.452L1186.78 630.297L1229.18 625.038Z" fill="#69F153" fill-opacity="0.31" stroke="black" class="Booked"></path><path id="10_6" d="M1229.18 645.02V625.038L1186.78 630.822L1081.6 633.451V652.381L1186.78 653.959L1229.18 645.02Z" fill="#69F153" fill-opacity="0.31" stroke="black" class="Booked"></path><path id="09_6" d="M1229.18 662.373V645.021L1186.78 653.434H1081.6V668.683L1186.78 670.786L1229.18 662.373Z" fill="#69F153" fill-opacity="0.31" stroke="black" class="Booked"></path><path id="08_6" d="M1229.18 680.25V662.897L1186.78 671.311L1081.6 668.682V686.56L1186.78 688.663L1229.18 680.25Z" fill="#69F153" fill-opacity="0.31" stroke="black" class="Booked"></path><path id="07_6" d="M1229.18 698.129V680.776L1186.78 689.19L1081.6 686.561V704.439L1186.78 706.542L1229.18 698.129Z" fill="#69F153" fill-opacity="0.31" stroke="black" class="Booked"></path><path id="06_6" d="M1229.18 716.007V698.654L1186.78 707.068L1081.6 704.438V722.317L1186.78 724.42L1229.18 716.007Z" fill="#69F153" fill-opacity="0.31" stroke="black" class="Booked"></path><path id="05_6" d="M1229.18 733.885V716.532L1186.78 724.946L1081.6 722.316V738.091L1186.78 742.298L1229.18 733.885Z" fill="#69F153" fill-opacity="0.31" stroke="black" class="Booked"></path><path id="04_6" d="M1229.18 751.763V734.41L1186.78 742.823L1081.6 738.091V754.918L1186.78 760.176L1229.18 751.763Z" fill="#69F153" fill-opacity="0.31" stroke="black" class="Booked"></path><path id="03_6" d="M1229.18 773.847V752.288L1186.78 760.701L1081.6 755.969V773.847L1185.57 783.312L1229.18 773.847Z" fill="#69F153" fill-opacity="0.31" stroke="black" class="Booked"></path><path id="02_6" d="M1229.18 795.933V774.374L1186.78 782.787L1081.6 774.374V792.252L1185.57 805.398L1229.18 795.933Z" fill="#69F153" fill-opacity="0.31" stroke="black" class="Booked"></path><path id="01_6" d="M1229.18 813.285V795.933L1186.78 805.924L1081.6 792.252L1081.38 806.975L1184.96 822.224L1229.18 813.285Z" fill="#69F153" fill-opacity="0.31" stroke="black" class="Available"></path><path id="00_6" d="M1229.18 829.06V813.285L1186.78 821.699L1081.38 807.501V822.75L1184.96 837.999L1229.18 829.06Z" fill="#69F153" fill-opacity="0.31" stroke="black"></path></g></g></g></a><a href="/smart-world/tower/g-h"><g class="sc-bZkfAO dKrtbD"><g class="sc-hKMtZM NuQqD"><g id="g-tower-svg" class="overlay-can-hide" aria-describedby="tippy-144"><path id="28_7" d="M1390.24 259.446V228.689L1365.5 222.701L1357.85 225.264C1355.53 222.508 1355.16 223.58 1352.5 224L1334.5 228.689C1331.5 229 1330 230.962 1330 232.5C1328.2 230.523 1326.06 228.694 1322 229.5L1266.38 246.118C1262.69 247.494 1261.42 249.086 1260.5 253.295C1259.62 249.792 1254.59 248.998 1251.41 249.194L1223.18 257.5V264.5L1231 266.147V280.5L1224.35 283.539V296.355L1360.82 257.396L1390.24 259.446Z" fill="#69F153" fill-opacity="0.31" stroke="black" class="Available"></path><path id="27_7" d="M1389.65 280.463V258.933L1360.82 257.396L1229.65 294.817V300.968L1224.35 303.019V315.834L1360.82 280.463H1389.65Z" fill="#69F153" fill-opacity="0.31" stroke="black" class="Booked"></path><path id="26_7" d="M1389.65 300.456V280.977H1360.82L1229.65 314.297V320.448L1224.35 321.473V334.289L1360.82 302.507L1389.65 300.456Z" fill="#69F153" fill-opacity="0.31" stroke="black" class="Booked"></path><path id="25_7" d="M1389.65 321.986V300.456L1360.82 303.532L1231.41 332.898V351.865L1360.82 325.062L1389.65 321.986Z" fill="#69F153" fill-opacity="0.31" stroke="black" class="Booked"></path><path id="24_7" d="M1389.65 344.541V323.011L1360.82 326.086L1231.41 351.913V370.88L1360.82 347.616L1389.65 344.541Z" fill="#69F153" fill-opacity="0.31" stroke="black" class="Available"></path><path id="23_7" d="M1389.65 367.096V345.566L1360.82 348.642L1231.41 371.434V390.401L1360.82 370.172L1389.65 367.096Z" fill="#69F153" fill-opacity="0.31" stroke="black" class="Booked"></path><path id="22_7" d="M1389.65 389.651V368.121L1360.82 371.197L1230.82 391.189V410.156L1360.82 392.727L1389.65 389.651Z" fill="#69F153" fill-opacity="0.31" stroke="black" class="Booked"></path><path id="21_7" d="M1390.82 409.131V389.651L1362 392.727L1230.82 410.669V429.636L1362 413.744L1390.82 409.131Z" fill="#69F153" fill-opacity="0.31" stroke="black" class="Booked"></path><path id="20_7" d="M1390.82 427.585V408.105L1362 413.232L1230.82 429.635V448.602L1362 434.249L1390.82 427.585Z" fill="#69F153" fill-opacity="0.31" stroke="black" class="Booked"></path><path id="19_7" d="M1390.82 447.577V428.098L1362 434.762L1230.82 449.115V468.082L1362 455.779L1390.82 447.577Z" fill="#69F153" fill-opacity="0.31" stroke="black" class="Booked"></path><path id="18_7" d="M1390.82 469.62V447.577L1362 456.804L1230.82 467.569V489.612L1362 477.822L1390.82 469.62Z" fill="#69F153" fill-opacity="0.31" stroke="black" class="Booked"></path><path id="17_7" d="M1390.82 491.663V469.62L1362 478.847L1230.82 489.612V511.655L1362 499.865L1390.82 491.663Z" fill="#69F153" fill-opacity="0.31" stroke="black" class="Booked"></path><path id="16_7" d="M1392 517.806V491.149L1363.18 500.377L1232 511.142V531.134L1363.18 521.394L1392 517.806Z" fill="#69F153" fill-opacity="0.31" stroke="black" class="Booked"></path><path id="15_7" d="M1392 538.31V517.293L1363.18 520.881L1232 531.646V551.638L1363.18 541.899L1392 538.31Z" fill="#69F153" fill-opacity="0.31" stroke="black" class="Booked"></path><path id="14_7" d="M1392 560.353V539.336L1363.18 542.924L1232 551.126V571.118L1363.18 563.942L1392 560.353Z" fill="#69F153" fill-opacity="0.31" stroke="black" class="Booked"></path><path id="13_7" d="M1390.82 581.884V560.866L1362 564.455L1232.59 570.606V590.598L1362 585.472L1390.82 581.884Z" fill="#69F153" fill-opacity="0.31" stroke="black" class="Booked"></path><path id="12_7" d="M1390.82 607.001V582.396L1362 585.984L1232.59 590.597V610.59L1362 607.001H1390.82Z" fill="#69F153" fill-opacity="0.31" stroke="black" class="Booked"></path><path id="11_7" d="M1390.82 628.532V607.515H1362L1232.59 610.59V630.582L1362 628.532H1390.82Z" fill="#69F153" fill-opacity="0.31" stroke="black" class="Booked"></path><path id="10_7" d="M1390.82 648.523V627.506H1362L1232.59 630.582V650.574L1362 648.523H1390.82Z" fill="#69F153" fill-opacity="0.31" stroke="black" class="Booked"></path><path id="09_7" d="M1390.82 669.028V648.011H1362L1232.59 651.086V671.079L1362 669.028H1390.82Z" fill="#69F153" fill-opacity="0.31" stroke="black" class="Booked"></path><path id="08_7" d="M1390.82 690.558V669.541H1362L1231.41 670.566V690.558L1362 693.121L1390.82 690.558Z" fill="#69F153" fill-opacity="0.31" stroke="black" class="Booked"></path><path id="07_7" d="M1390.82 711.576V690.559L1363.18 693.122L1231.41 690.559V710.551L1363.18 716.702L1390.82 711.576Z" fill="#69F153" fill-opacity="0.31" stroke="black" class="Booked"></path><path id="06_7" d="M1391.41 733.106V712.089L1362 717.215L1231.41 710.551V730.543L1362 738.745L1391.41 733.106Z" fill="#69F153" fill-opacity="0.31" stroke="black" class="Booked"></path><path id="05_7" d="M1390.82 754.123V733.106L1361.41 739.77L1230.82 730.543V747.972L1361.41 758.737L1390.82 754.123Z" fill="#69F153" fill-opacity="0.31" stroke="black" class="Booked"></path><path id="04_7" d="M1390.82 774.115V753.098L1361.41 759.762L1230.82 748.997V766.426L1361.41 778.729L1390.82 774.115Z" fill="#69F153" fill-opacity="0.31" stroke="black" class="Booked"></path><path id="03_7" d="M1390.82 794.62V773.602L1359.06 778.729L1230.82 766.426V783.855L1359.06 800.259L1390.82 794.62Z" fill="#69F153" fill-opacity="0.31" stroke="black" class="Booked"></path><path id="02_7" d="M1390.82 816.662V795.645L1359.06 800.771L1230.82 783.854V804.359L1359.06 825.377L1390.82 816.662Z" fill="#69F153" fill-opacity="0.31" stroke="black" class="Booked"></path><path id="01_7" d="M1390.82 838.192V817.175L1359.06 825.889L1230.82 804.359V824.864L1359.06 850.495L1390.82 838.192Z" fill="#69F153" fill-opacity="0.31" stroke="black" class="Available"></path><path id="00_7" d="M1390.82 859.21V838.192L1359.06 851.008L1230.82 824.864V843.831L1357.29 871L1390.82 859.21Z" fill="#69F153" fill-opacity="0.31" stroke="black"></path></g></g></g></a><a href="/smart-world/tower/g-h"><g class="sc-bZkfAO dKrtbD"><g class="sc-hKMtZM NuQqD"><g id="h-tower-svg" class="overlay-can-hide" aria-describedby="tippy-144"><path id="28_8" d="M1701.47 200.725L1701.5 193.619L1692.5 190.119C1686.72 187.323 1685.03 188.598 1683.5 193.619L1655 187.119V176.119L1633 171.119C1631.85 165.155 1629.98 163.577 1625 163.119L1596.5 158.119C1589.78 156.618 1586.16 156.561 1580 158.119L1537 170.119C1530.02 172.206 1527.85 174.565 1526 180.119C1523.19 176.318 1521.25 175.767 1517.5 176.119L1448 195.119C1439.9 198.112 1437.15 200.3 1435.5 206.119C1434.2 203.071 1433.09 201.764 1427.5 203.119L1416 206.119C1408.89 206.682 1406.82 209.278 1406 213.119L1399.5 214.119C1398.19 215.217 1399.29 224.411 1399.06 226.119L1390.5 228.619V260.906L1548.03 209.236L1593.32 213.289L1699.5 237.823V223.619L1690.5 219.816L1690.97 203.619L1701.47 200.725Z" fill="#69F153" fill-opacity="0.31" class="Available"></path><path id="27_8" d="M1593.82 238.111L1698.5 260.906V247.119L1690 244.119V241.619H1696L1698.5 238.111L1593.82 213.289L1547.52 209.236L1390.5 261.413V283.195L1524.37 241.15L1547.52 234.565L1593.82 238.111Z" fill="#69F153" fill-opacity="0.31" stroke="black" class="Booked"></path><path id="26_8" d="M1593.32 262.932L1699.5 283.619L1698.5 270.119L1690 267.619V264.619L1698.5 263.619V260.619L1593.32 238.11L1547.02 234.058L1390 283.194V304.977L1523.87 265.971L1547.02 259.386L1593.32 262.932Z" fill="#69F153" fill-opacity="0.31" stroke="black" class="Booked"></path><path id="25_8" d="M1692 304.397V281.566L1595.75 262.059L1548.89 258L1390 305.184V327L1525.47 289.963L1548.89 283.368L1595.75 286.919L1692 304.397Z" fill="#69F153" fill-opacity="0.31" stroke="black" class="Available"></path><path id="24_8" d="M1692 328.169V305.323L1595.75 288.062L1548.89 284L1390 328.169V350L1525.47 315.985L1548.89 309.385L1595.75 312.938L1692 328.169Z" fill="#69F153" fill-opacity="0.31" stroke="black" class="Booked"></path><path id="23_8" d="M1692 349.131V327.787L1595.75 312.541L1548.89 310L1390 350.148V372L1525.47 342.016L1539.22 337.951L1599.31 335.41L1692 349.131Z" fill="#69F153" fill-opacity="0.31" stroke="black" class="Booked"></path><path id="22_8" d="M1692 371.105V349.737L1598.8 336L1539.22 338.035L1390 372.123V394L1539.22 362.456L1598.8 357.877L1692 371.105Z" fill="#69F153" fill-opacity="0.31" stroke="black" class="Booked"></path><path id="21_8" d="M1691 392.793V371.604L1599.47 360L1539.98 362.018L1391 394.306V416L1539.98 386.234L1599.47 381.694L1691 392.793Z" fill="#69F153" fill-opacity="0.31" stroke="black" class="Booked"></path><path id="20_8" d="M1692 414.623V393.226L1598.95 381L1539.46 386.094L1392 416.373V435L1539.46 410.547L1598.95 405.962L1692 414.623Z" fill="#69F153" fill-opacity="0.31" stroke="black" class="Booked"></path><path id="19_8" d="M1691 436.297V415.089L1601.51 406L1539.98 410.04L1391 434.277V457L1539.98 434.277L1599.47 429.733L1691 436.297Z" fill="#69F153" fill-opacity="0.31" stroke="black" class="Booked"></path><path id="18_8" d="M1692 460.289V437.052L1602.51 432L1540.98 436.041L1392 458.268V481L1540.98 460.289L1600.47 455.742L1692 460.289Z" fill="#69F153" fill-opacity="0.31" stroke="black" class="Booked"></path><path id="17_8" d="M1692 482.337V460.674L1600.47 455L1540.98 460.674L1392 480.789V504L1540.98 485.432L1600.47 480.789L1692 482.337Z" fill="#69F153" fill-opacity="0.31" stroke="black" class="Booked"></path><path id="16_8" d="M1692 508.329V482.529L1602.51 480L1540.98 484.047L1392 503.776V523L1540.98 508.329L1600.47 503.776L1692 508.329Z" fill="#69F153" fill-opacity="0.31" stroke="black" class="Booked"></path><path id="15_8" d="M1692 536V508.5L1600.47 505L1540.98 510L1392 524.5V547L1540.98 534L1600.47 529.5L1692 536Z" fill="#69F153" fill-opacity="0.31" stroke="black" class="Booked"></path><path id="14_8" d="M1692 562.4V536.094L1600.47 528L1392 548.235V571L1600.47 557.341L1692 562.4Z" fill="#69F153" fill-opacity="0.31" stroke="black" class="Booked"></path><path id="13_8" d="M1599.46 582.191L1692 584.25V562.118L1599.46 558L1391 569.838V593L1599.46 582.191Z" fill="#69F153" fill-opacity="0.31" stroke="black" class="Booked"></path><path id="12_8" d="M1599.46 606.5H1692V585L1599.46 583L1391 592.5V615L1599.46 606.5Z" fill="#69F153" fill-opacity="0.31" stroke="black" class="Booked"></path><path id="11_8" d="M1598.3 628.5H1691V607L1598.3 605L1391 614.438V635L1598.3 628.5Z" fill="#69F153" fill-opacity="0.31" stroke="black" class="Booked"></path><path id="10_8" d="M1599.47 652.821L1691 651.268V629H1598.45L1392 634.696V658L1599.47 652.821Z" fill="#69F153" fill-opacity="0.31" stroke="black" class="Booked"></path><path id="09_8" d="M1598.45 681H1691V652H1598.45L1392 657.696V681H1598.45Z" fill="#69F153" fill-opacity="0.31" stroke="black" class="Booked"></path><path id="08_8" d="M1598.45 710.475H1691V682H1598.45H1392V707.424L1540.99 712L1598.45 710.475Z" fill="#69F153" fill-opacity="0.31" stroke="black" class="Booked"></path><path id="07_8" d="M1598.45 733L1691 727.8V710.12H1595.91L1392 707V723.12L1540.99 733H1598.45Z" fill="#69F153" fill-opacity="0.31" stroke="black" class="Booked"></path><path id="06_8" d="M1598.45 755L1691 745.344V728.066L1595.91 732.639H1538.96L1392 724V742.803L1540.99 755H1598.45Z" fill="#69F153" fill-opacity="0.31" stroke="black" class="Booked"></path><path id="05_8" d="M1598.45 778L1691 767.41V746L1595.91 754.5H1538.96L1392 744V764.623L1540.99 778H1598.45Z" fill="#69F153" fill-opacity="0.31" stroke="black" class="Booked"></path><path id="04_8" d="M1598.45 801L1691 790.41V768L1595.91 777.5H1538.96L1392 765V787.623L1540.99 801H1598.45Z" fill="#69F153" fill-opacity="0.31" stroke="black" class="Booked"></path><path id="03_8" d="M1598.45 825L1691 814.116V791.083L1595.91 800.847H1538.96L1392 788V811.251L1540.99 825H1598.45Z" fill="#69F153" fill-opacity="0.31" stroke="black" class="Booked"></path><path id="02_8" d="M1598.45 848L1691 837.41V815L1595.91 824.5H1538.96L1392 812V834.623L1540.99 848H1598.45Z" fill="#69F153" fill-opacity="0.31" stroke="black" class="Booked"></path><path id="01_8" d="M1598.45 871L1691 860.41V838L1595.91 847.5H1538.96L1392 835V857.623L1540.99 871H1598.45Z" fill="#69F153" fill-opacity="0.31" stroke="black" class="Booked"></path><path id="00_8" d="M1598.45 895L1691 884.116V861.083L1595.91 870.847H1538.96L1392 858V881.251L1540.99 895H1598.45Z" fill="#69F153" fill-opacity="0.31" stroke="black"></path></g></g></g></a></svg>